<svg aria-hidden="true" style="position: absolute; width: 0; height: 0; overflow: hidden;" version="1.1" xmlns="http://www.w3.org/2000/svg" xmlns:xlink="http://www.w3.org/1999/xlink">
<defs>
<symbol id="icon-heart" viewBox="0 0 32 32">
<title>heart</title>
<path d="M29.306 4.768c-1.662-1.66-3.958-2.687-6.493-2.687s-4.831 1.027-6.493 2.687l-0.32 0.32-0.32-0.32c-1.662-1.664-3.96-2.694-6.498-2.694-5.072 0-9.183 4.112-9.183 9.183 0 2.534 1.026 4.828 2.686 6.49l11.363 11.373c0.499 0.496 1.187 0.803 1.947 0.803s1.448-0.307 1.947-0.803l11.353-11.36c1.671-1.66 2.705-3.96 2.705-6.501 0-2.536-1.030-4.832-2.695-6.491l-0-0z"></path>
</symbol>
</defs>
</svg>
